<?xml version="1.0" encoding="UTF-8" standalone="no"?>
<!-- Created with Inkscape (http://www.inkscape.org/) -->

<svg
   width="32"
   height="32"
   viewBox="0 0 8.4666666 8.4666666"
   version="1.1"
   id="svg8"
   inkscape:version="1.1.1 (3bf5ae0d25, 2021-09-20)"
   sodipodi:docname="ramses_install_icon.svg"
   inkscape:export-filename="D:\RxLab\src\RxOT\Ramses\Ramses-Installer\config\ramses_install.png"
   inkscape:export-xdpi="384"
   inkscape:export-ydpi="384"
   xmlns:inkscape="http://www.inkscape.org/namespaces/inkscape"
   xmlns:sodipodi="http://sodipodi.sourceforge.net/DTD/sodipodi-0.dtd"
   xmlns="http://www.w3.org/2000/svg"
   xmlns:svg="http://www.w3.org/2000/svg"
   xmlns:rdf="http://www.w3.org/1999/02/22-rdf-syntax-ns#"
   xmlns:cc="http://creativecommons.org/ns#"
   xmlns:dc="http://purl.org/dc/elements/1.1/">
  <defs
     id="defs2">
    <style
       id="style1399">.cls-1{fill:#e3e3e3;}</style>
    <style
       id="style1399-4">.cls-1{fill:#e3e3e3;}</style>
    <style
       id="style1399-8">.cls-1{fill:#e3e3e3;}</style>
    <style
       id="style1399-4-5">.cls-1{fill:#e3e3e3;}</style>
    <style
       id="style1399-0">.cls-1{fill:#e3e3e3;}</style>
    <style
       id="style854">.cls-1{fill:#e3e3e3;}</style>
    <style
       id="style1399-84">.cls-1{fill:#e3e3e3;}</style>
    <style
       id="style1399-4-8">.cls-1{fill:#e3e3e3;}</style>
    <style
       id="style1399-8-10">.cls-1{fill:#e3e3e3;}</style>
    <style
       id="style1399-4-5-3">.cls-1{fill:#e3e3e3;}</style>
    <style
       id="style1399-0-0">.cls-1{fill:#e3e3e3;}</style>
    <style
       id="style1399-5">.cls-1{fill:#e3e3e3;}</style>
    <style
       id="style1399-4-6">.cls-1{fill:#e3e3e3;}</style>
    <style
       id="style1399-8-1">.cls-1{fill:#e3e3e3;}</style>
    <style
       id="style1399-4-5-1">.cls-1{fill:#e3e3e3;}</style>
    <style
       id="style1399-0-5">.cls-1{fill:#e3e3e3;}</style>
    <style
       id="style2">.a{filter:url(#a);}.b{fill:#710132;}.c{fill:#e3e3e3;}</style>
    <filter
       name="AI_FlouGaussien_4"
       id="a">
      <feGaussianBlur
         id="feGaussianBlur4"
         stdDeviation="4" />
    </filter>
    <style
       id="style2-1">.a{filter:url(#a);}.b{fill:#710132;}.c{fill:#e3e3e3;}</style>
    <filter
       name="AI_FlouGaussien_4"
       id="a-3">
      <feGaussianBlur
         id="feGaussianBlur4-3"
         stdDeviation="4" />
    </filter>
    <style
       id="style2-4">.a{filter:url(#a);}.b{fill:#710132;}.c{fill:#e3e3e3;}</style>
    <filter
       name="AI_FlouGaussien_4"
       id="a-6">
      <feGaussianBlur
         id="feGaussianBlur4-4"
         stdDeviation="4" />
    </filter>
    <style
       id="style2-5">.a{filter:url(#a);}.b{fill:#710132;}.c{fill:#e3e3e3;}</style>
    <filter
       name="AI_FlouGaussien_4"
       id="a-9">
      <feGaussianBlur
         id="feGaussianBlur4-5"
         stdDeviation="4" />
    </filter>
    <style
       id="style2-1-7">.a{filter:url(#a);}.b{fill:#710132;}.c{fill:#e3e3e3;}</style>
    <filter
       name="AI_FlouGaussien_4"
       id="a-3-2">
      <feGaussianBlur
         id="feGaussianBlur4-3-9"
         stdDeviation="4" />
    </filter>
  </defs>
  <sodipodi:namedview
     id="base"
     pagecolor="#ffffff"
     bordercolor="#666666"
     borderopacity="1.0"
     inkscape:pageopacity="0.0"
     inkscape:pageshadow="2"
     inkscape:zoom="11.313708"
     inkscape:cx="11.888233"
     inkscape:cy="21.345787"
     inkscape:document-units="mm"
     inkscape:current-layer="svg8"
     showgrid="false"
     units="px"
     inkscape:window-width="1282"
     inkscape:window-height="1081"
     inkscape:window-x="689"
     inkscape:window-y="152"
     inkscape:window-maximized="0"
     inkscape:snap-bbox="true"
     inkscape:bbox-paths="true"
     inkscape:bbox-nodes="true"
     inkscape:snap-bbox-edge-midpoints="true"
     inkscape:snap-bbox-midpoints="true"
     inkscape:snap-nodes="true"
     inkscape:snap-others="true"
     inkscape:snap-object-midpoints="true"
     inkscape:snap-page="true"
     inkscape:pagecheckerboard="0"
     inkscape:snap-global="false" />
  <metadata
     id="metadata5">
    <rdf:RDF>
      <cc:Work
         rdf:about="">
        <dc:format>image/svg+xml</dc:format>
        <dc:type
           rdf:resource="http://purl.org/dc/dcmitype/StillImage" />
      </cc:Work>
    </rdf:RDF>
  </metadata>
  <path
     sodipodi:type="star"
     style="fill:#e3e3e3;fill-opacity:1;stroke:#a526c4;stroke-width:21.2455;stroke-linejoin:round;stroke-miterlimit:4;stroke-dasharray:none;stroke-opacity:1"
     id="path845"
     inkscape:flatsided="true"
     sodipodi:sides="6"
     sodipodi:cx="-85.862968"
     sodipodi:cy="16.162441"
     sodipodi:r1="260.73874"
     sodipodi:r2="225.80638"
     sodipodi:arg1="1.0471976"
     sodipodi:arg2="1.5707963"
     inkscape:rounded="0"
     inkscape:randomized="0"
     d="m 44.50639,241.96882 -260.73874,-1e-5 -130.36936,-225.806381 130.36938,-225.806369 260.738742,2e-5 130.369358,225.806374 z"
     transform="matrix(0.01182679,0,0,0.01182679,5.2041668,2.6050481)" />
  <path
     sodipodi:nodetypes="saascccsscsccssssscccsccccc"
     inkscape:connector-curvature="0"
     id="circle15-1"
     d="M 1.2356577,2.4158696 C 1.0562736,2.7261574 1.0674289,2.8260482 1.127732,3.0223203 c 0.07544,0.2455446 0.3225979,0.4116253 0.537716,0.5520065 0.3472792,0.2266297 0.7403802,0.3002785 1.1652377,0.4357758 0.1509614,0.048144 0.4084245,0.7718284 0.043279,1.461654 0.743053,0.059865 1.0550925,0.028518 1.5905472,0.052552 C 4.4010119,4.5321124 4.8911942,4.588323 5.0833147,4.625313 5.2771091,4.688249 5.6212537,4.688183 5.69803,4.5065273 5.774812,4.3248836 5.609184,4.1782039 5.606087,4.0950578 5.596757,3.8452425 5.693716,3.7087363 5.705946,3.6892039 5.718183,3.6698329 5.78146,3.6355289 5.784516,3.5714208 5.789536,3.4662301 5.686556,3.413621 5.686556,3.413621 5.724271,3.353622 5.8452404,3.3177 5.8086845,3.1937343 c 0,0 -0.1813772,-0.2758045 -0.1626785,-0.4417301 C 5.6647019,2.5860709 6.0095304,2.608506 5.9399001,2.4352947 5.7014142,1.8420263 5.3243079,1.6730149 5.1622081,1.6088937 5.0001096,1.544784 4.9535162,1.3230522 4.9240256,1.2156719 4.8945412,1.1083301 4.7698636,1.0172018 4.6711085,0.93791098 4.5723536,0.858613 4.4543825,0.60765675 4.2579659,0.4745093 3.9595926,0.29018575 3.5617617,0.12102768 3.1937345,0.13249987 2.8257056,0.1438477 2.6190505,0.1801542 2.2990672,0.67645589 2.0169017,1.1475468 1.7061931,1.6019643 1.2356577,2.4158696 Z M 4.5945323,1.4913623 c 0,0 0.2853113,0.1650457 0.2557564,0.4860326 0,0 -0.2328622,0.127657 -0.6925807,0.025892 C 4.2463039,1.7216464 4.5945346,1.491396 4.5945346,1.491396 Z"
     style="display:inline;fill:#a526c4;fill-opacity:1;stroke-width:0.0145482" />
  <path
     style="fill:#a526c4;fill-opacity:1;stroke:none;stroke-width:0.00767871;stroke-miterlimit:4;stroke-dasharray:none;stroke-opacity:1"
     inkscape:connector-curvature="0"
     d="m 4.9580053,7.5646923 c -0.1319357,0 -0.256065,-0.070262 -0.323204,-0.1826806 L 4.13282,6.5498001 3.6316195,7.3820117 C 3.5637002,7.4952113 3.4395707,7.565473 3.3076346,7.565473 c -0.03513,0 -0.070262,-0.00468 -0.1038315,-0.014833 L 2.1342632,7.244611 v 0.5430539 c 0,0.1147607 0.078068,0.2146886 0.1889261,0.2420127 l 1.6878438,0.4223513 c 0.07963,0.019517 0.1631633,0.019517 0.2420126,0 L 5.9424508,8.0296776 C 6.0533083,8.0015728 6.131377,7.9016452 6.131377,7.7876649 V 7.244611 L 5.0618365,7.5498593 c -0.03357,0.010147 -0.0687,0.014833 -0.1038312,0.014833 z M 6.6177445,6.6887623 6.2156909,5.8862167 C 6.1914898,5.8378145 6.1391836,5.8097094 6.0853164,5.8167354 L 4.13282,6.0657744 4.8487094,7.2531983 c 0.029665,0.049182 0.088998,0.072604 0.1444269,0.05699 l 1.544978,-0.4410881 c 0.077287,-0.02264 0.1147611,-0.1085155 0.07963,-0.1803379 z M 2.0499491,5.8862167 1.6478956,6.6887623 c -0.035911,0.071823 0.00234,0.1576986 0.078849,0.1795578 l 1.5449782,0.4410877 c 0.055429,0.015614 0.1147607,-0.00781 0.144427,-0.05699 L 4.13282,6.0657746 2.1795429,5.8167356 c -0.053867,-0.00625 -0.1053925,0.021079 -0.1295938,0.069481 z"
     id="path1095"
     sodipodi:nodetypes="scccsccsccccsccscccccccccccccccc" />
</svg>
